<svg version="1.2" xmlns="http://www.w3.org/2000/svg" viewBox="0 0 1500 1000" width="1500" height="1000"><style>tspan{white-space:pre}.a{fill:#f4f4f4}.b{fill:#b7b6b6}.c{fill:#e2e1e4}.d{fill:#fff}.e{fill:#283341}.f{fill:#3b4b5f}.g{fill:#ededed}.h{font-size: 8px;text-transform: uppercase;fill: #ffffff;font-weight: 700;font-family: "Poppins-Bold", "Poppins"}.i{font-size: 7px;fill: #ffffff;font-weight: 400;font-family: "Poppins-Regular", "Poppins"}.j{fill:#c1c1c3}.k{font-size: 7px;text-transform: uppercase;fill: #c1c1c3;font-weight: 500;font-family: "Poppins-Medium", "Poppins"}.l{font-size: 11px;text-transform: uppercase;fill: #c1c1c3;font-weight: 500;font-family: "Poppins-Medium", "Poppins"}.m{fill:#009fe3}.n{font-size: 7px;text-transform: uppercase;fill: #ffffff;font-weight: 700;font-family: "Poppins-Bold", "Poppins"}.o{font-size: 17px;text-transform: uppercase;fill: #ffffff;font-weight: 900;font-family: "Poppins-Black", "Poppins"}.p{fill:none;stroke:#3f5066;stroke-miterlimit:10;stroke-width:9.4}.q{fill:none;stroke:#009fe3;stroke-miterlimit:10;stroke-width:9.4}.r{fill:#6fffff}.s{font-size: 8px;text-transform: uppercase;fill: #b0b0b0;font-weight: 700;font-family: "Poppins-Bold", "Poppins"}.t{font-size: 6px;text-transform: uppercase;fill: #b0b0b0;font-weight: 700;font-family: "Poppins-Bold", "Poppins"}.u{font-size: 20px;text-transform: uppercase;fill: #b0b0b0;font-weight: 700;font-family: "Poppins-Bold", "Poppins"}.v{font-size: 4px;text-transform: uppercase;fill: #b0b0b0;font-weight: 700;font-family: "Poppins-Bold", "Poppins"}.w{fill:none;stroke:#b0b0b0;stroke-miterlimit:10;stroke-width:1.2}.x{fill:#b0b0b0}.y{font-size: 4px;fill: #b0b0b0;font-weight: 400;font-family: "Poppins-Regular", "Poppins"}.z{font-size: 7px;text-transform: uppercase;fill: #b0b0b0;font-weight: 700;font-family: "Poppins-Bold", "Poppins"}.A{fill:#006486}.B{fill:#00e2ea}.C{font-size: 7px;text-transform: uppercase;fill: #aaaaad;font-weight: 700;font-family: "Poppins-Bold", "Poppins"}.D{font-size: 4px;fill: #aaaaad;font-weight: 400;font-family: "Poppins-Regular", "Poppins"}.E{font-size: 20px;text-transform: uppercase;fill: #838484;font-weight: 700;font-family: "Poppins-Bold", "Poppins"}.F{font-size: 4px;text-transform: uppercase;fill: #ffffff;font-weight: 700;font-family: "Poppins-Bold", "Poppins"}.G{font-size: 2px;fill: #ffffff;font-weight: 400;font-family: "Poppins-Regular", "Poppins"}.H{font-size: 7px;text-transform: uppercase;fill: #ffffff;font-weight: 900;font-family: "Poppins-Black", "Poppins"}.I{fill:none;stroke:#3f5066;stroke-miterlimit:10;stroke-width:4.2}.J{fill:none;stroke:#009fe3;stroke-miterlimit:10;stroke-width:4.2}.K{font-size: 6px;text-transform: uppercase;fill: #009fe3;font-weight: 700;font-family: "Poppins-Bold", "Poppins"}.L{fill:#a4b6c5}</style><path class="a" d="m1500 1000h-1500v-1000h1500z"/><path class="b" d="m1354.4 120.8h-1208.8v758.4h1208.8z"/><path class="c" d="m1354.4 120.8h-1208.8v758.4h1208.8z"/><path class="d" d="m1354.4 120.8h-1208.8v95.6h1208.8z"/><path class="e" d="m380.6 120.8h-235v758.4h235z"/><path class="f" d="m381 258.6h-235v58.1h235z"/><path class="d" d="m619.2 449.8h-202v-196.2h202z"/><path class="d" d="m619.2 833h-202v-344.8h202z"/><path class="e" d="m1315.6 833h-191.7v-344.8h191.7z"/><path class="e" d="m853.4 449.8h-202v-196.2h202z"/><path class="d" d="m1091.1 449.3h-201.9v-196.2h201.9z"/><path class="d" d="m1315.6 336.3h-191.7v-82.7h191.7z"/><path class="d" d="m1315.6 449.8h-191.7v-82.6h191.7z"/><path class="d" d="m1090.8 833h-439.4v-344.8h439.4z"/><path class="g" d="m1059.7 602h-381.9v-86.4h381.9z"/><text style="transform:matrix(2,0,0,2,207.102,182.328)" ><tspan x="0" y="0" class="h">LOREM IPSUM
</tspan></text><path class="d" d="m217.6 287.2l-14-10.5-14 10.5 1.4 1.8 3.2-2.5v14.4h5.8v-9.2h7.3v9.2h5.7v-14.4l3.2 2.5z"/><path class="d" d="m197.5 365h-5v-13.9h5z"/><path class="d" d="m206.2 365h-4.9v-27.2h4.9z"/><path class="d" d="m214.7 365h-5v-21.4h5z"/><path class="d" d="m203.6 401.9l3.9 8 8.7 1.2-6.3 6.2 1.5 8.7-7.8-4.1-7.8 4.1 1.5-8.7-6.3-6.2 8.7-1.2z"/><path fill-rule="evenodd" class="d" d="m212.7 541.4q-0.4 1.4-1.1 2.5l2.1 2.7-2.7 2.7-2.6-2.1q-1.2 0.7-2.5 1l-0.4 3.3h-3.8l-0.4-3.3q-1.3-0.3-2.5-1l-2.6 2.1-2.7-2.7 2.1-2.7q-0.7-1.1-1.1-2.5l-3.3-0.3v-3.9l3.4-0.3q0.3-1.4 1-2.5l-2.1-2.7 2.7-2.7 2.6 2.1q1.2-0.7 2.5-1l0.4-3.3h3.8l0.4 3.3q1.3 0.3 2.5 1l2.6-2.1 2.7 2.7-2.1 2.7q0.7 1.1 1.1 2.5l3.3 0.3v3.9zm-3.4-2.3c0-3.1-2.5-5.7-5.7-5.7-3.1 0-5.6 2.6-5.6 5.7 0 3.1 2.5 5.6 5.6 5.6 3.2 0 5.7-2.5 5.7-5.6z"/><path fill-rule="evenodd" class="d" d="m216.8 465.8v15.8h-2.4l-3.4 5.7-3.3-5.7h-17.2v-15.8zm-4.2 10.4h-18v1.7h18zm0-3.6h-18v1.6h18zm0-3.6h-18v1.7h18z"/><text style="transform:matrix(2,0,0,2,236.15,293.203)" ><tspan x="0" y="0" class="i">Dashboard
</tspan></text><text style="transform:matrix(2,0,0,2,236.15,359.753)" ><tspan x="0" y="0" class="i">Chart
</tspan></text><text style="transform:matrix(2,0,0,2,236.15,421.904)" ><tspan x="0" y="0" class="i">Apps
</tspan></text><text style="transform:matrix(2,0,0,2,236.15,481.853)" ><tspan x="0" y="0" class="i">Chat
</tspan></text><text style="transform:matrix(2,0,0,2,236.15,544.001)" ><tspan x="0" y="0" class="i">Setting
</tspan></text><path class="j" d="m1315.8 170.2c0 12-9.7 21.8-21.7 21.8-12 0-21.8-9.8-21.8-21.8 0-12 9.8-21.7 21.8-21.7 12 0 21.7 9.7 21.7 21.7z"/><text style="transform:matrix(2,0,0,2,1166.068,176.757)" ><tspan x="0" y="0" class="k" dx="0 1 1 1 1 1 1 1 1 1" >YOUR NAME
</tspan></text><text style="transform:matrix(2,0,0,2,478.207,172.974)" ><tspan x="0" y="0" class="l">SEARCH
</tspan></text><path fill-rule="evenodd" class="j" d="m457.6 168.8c-3.6 0-6.6-3-6.6-6.7 0-3.6 3-6.6 6.6-6.6 3.7 0 6.7 3 6.7 6.6 0 3.7-3 6.7-6.7 6.7zm0-11.7c-2.7 0-5 2.3-5 5 0 2.8 2.3 5 5 5 2.8 0 5-2.2 5-5 0-2.7-2.2-5-5-5z"/><path class="j" d="m462.8 168.7l-1.3-1.3 1.2-1.2 1.3 1.3z"/><path class="j" d="m467.1 174.1l-4.8-4.7c-0.1-0.2-0.1-0.4 0-0.5l1.9-1.9c0.1-0.1 0.3-0.1 0.5 0l4.7 4.7c0.1 0.2 0.1 0.4 0 0.5l-1.9 1.9c-0.1 0.1-0.3 0.1-0.4 0z"/><path class="m" d="m834.3 437.1h-165.9v-34.3h165.9z"/><text style="transform:matrix(2,0,0,2,685.378,426.667)" ><tspan x="0" y="0" class="n" dx="0 1 1 1 1 1 1 1 1 1 1 1" >LOREM IPSUM
</tspan></text><text style="transform:matrix(2,0,0,2,719.498,340.693)" ><tspan x="0" y="0" class="o">75%
</tspan></text><path class="p" d="m808.5 329c0 30.1-24.5 54.6-54.6 54.6-30.2 0-54.7-24.5-54.7-54.6 0-30.2 24.5-54.7 54.7-54.7 30.1 0 54.6 24.5 54.6 54.7z"/><path class="q" d="m804.7 308.8c2.4 6.2 3.8 13 3.8 20.2 0 30.1-24.5 54.6-54.6 54.6-30.2 0-54.7-24.5-54.7-54.6 0-15.8 6.7-30.1 17.5-40"/><path class="c" d="m834.6 376.9h-19.6v-2h19.6z"/><path class="c" d="m834.6 384.1h-19.6v-2h19.6z"/><path class="c" d="m834.6 391.3h-19.6v-2h19.6z"/><path class="c" d="m688 270.1h-19.6v-2h19.6z"/><path class="c" d="m688 277.3h-19.6v-2h19.6z"/><path class="c" d="m688 284.5h-19.6v-2h19.6z"/><path class="m" d="m599.6 432.4v-55.8c-9.8-3.9-20.9-2.2-30.9 1.3-9.9 3.4-23.9 12.7-37.2 12.3-10.1-0.3-20.7-5.2-27.3-7.9-12.7-5.2-24.4-3.4-36.9 2.2-12.5 5.5-23.1 14.6-32.8 24.3v23.6z"/><path class="r" d="m599.6 432.4v-26.6c-9.8-1.9-20.9-1.1-30.9 0.6-9.9 1.6-23.9 6-37.2 5.8-10.1-0.1-20.7-2.4-27.3-3.7-12.7-2.5-18.7-4.1-30.1-2.6-11.4 1.5-29.5 12.9-39.6 21.4v5.1z"/><text style="transform:matrix(2,0,0,2,466.032,527.326)" ><tspan x="0" y="0" class="s">LOREM IPSUM
</tspan></text><text style="transform:matrix(2,0,0,2,437.627,292.792)" ><tspan x="0" y="0" class="t">LOREM IPSUM
</tspan></text><text style="transform:matrix(2,0,0,2,437.621,339.68)" ><tspan x="0" y="0" class="u">123,4
</tspan></text><text style="transform:matrix(2,0,0,2,440.625,567.833)" ><tspan x="0" y="0" class="v">LOREM IPSUM
</tspan></text><path class="w" d="m441.4 539.5h147"/><path class="x" d="m572.4 573.4h-131.8v3.9h131.8z"/><text style="transform:matrix(2,0,0,2,440.625,606.544)" ><tspan x="0" y="0" class="v">LOREM IPSUM
</tspan></text><path class="x" d="m572.4 612.1h-131.8v3.9h131.8z"/><text style="transform:matrix(2,0,0,2,440.625,645.257)" ><tspan x="0" y="0" class="v">LOREM IPSUM
</tspan></text><path class="x" d="m572.4 650.8h-131.8v3.9h131.8z"/><text style="transform:matrix(2,0,0,2,440.625,683.968)" ><tspan x="0" y="0" class="v">LOREM IPSUM
</tspan></text><path class="x" d="m572.4 689.5h-131.8v3.9h131.8z"/><text style="transform:matrix(2,0,0,2,440.625,722.679)" ><tspan x="0" y="0" class="v">LOREM IPSUM
</tspan></text><path class="x" d="m572.4 728.2h-131.8v4h131.8z"/><text style="transform:matrix(2,0,0,2,440.625,761.39)" ><tspan x="0" y="0" class="v">LOREM IPSUM
</tspan></text><path class="x" d="m572.4 766.9h-131.8v4h131.8z"/><text style="transform:matrix(2,0,0,2,440.625,800.101)" ><tspan x="0" y="0" class="v">LOREM IPSUM
</tspan></text><path class="x" d="m572.4 805.6h-131.8v4h131.8z"/><path class="m" d="m516.3 573.4h-75.7v3.9h75.7z"/><path class="m" d="m542.5 612.1h-101.9v3.9h101.9z"/><path class="m" d="m497 650.8h-56.4v3.9h56.4z"/><path class="m" d="m556.7 689.5h-116.1v3.9h116.1z"/><path class="m" d="m516.3 728.2h-75.7v4h75.7z"/><path class="m" d="m534.8 766.9h-94.2v4h94.2z"/><path class="m" d="m485.5 805.6h-44.9v4h44.9z"/><path class="w" d="m438.9 297h132.7"/><text style="transform:matrix(2,0,0,2,437.625,357.124)" ><tspan x="0" y="0" class="y">Lorem ipsum
</tspan></text><text style="transform:matrix(2,0,0,2,911.496,296.587)" ><tspan x="0" y="0" class="z">LOREM IPSUM
</tspan></text><text style="transform:matrix(2,0,0,2,911.496,307.663)" ><tspan x="0" y="2.6" class="y">Lorem ipsum dolor sit amet, consectetuer </tspan><tspan x="0" y="6.8" class="y">adipiscing elit, sed diam nonummy nibh </tspan><tspan x="0" y="11.1" class="y">euismod tincidunt ut laoreet dolore magna </tspan><tspan x="0" y="15.3" class="y">aliquam erat 
</tspan></text><path class="m" d="m923.6 364.7h-11.2v-11.2h11.2z"/><text style="transform:matrix(2,0,0,2,931.724,363.609)" ><tspan x="0" y="0" class="t" dx="0 1 1 1 1 1 1 1 1 1 1 1" >LOREM IPSUM
</tspan></text><path class="A" d="m923.6 389.1h-11.2v-11.2h11.2z"/><text style="transform:matrix(2,0,0,2,931.724,388.021)" ><tspan x="0" y="0" class="t" dx="0 1 1 1 1 1 1 1 1 1 1 1" >LOREM IPSUM
</tspan></text><path class="B" d="m923.6 413.5h-11.2v-11.2h11.2z"/><text style="transform:matrix(2,0,0,2,931.724,412.431)" ><tspan x="0" y="0" class="t" dx="0 1 1 1 1 1 1 1 1 1 1 1" >LOREM IPSUM
</tspan></text><text style="transform:matrix(2,0,0,2,701.476,543.306)" ><tspan x="0" y="0" class="C">LOREM IPSUM
</tspan></text><text style="transform:matrix(2,0,0,2,702.216,553.747)" ><tspan x="0" y="3.2" class="D">Lorem ipsum dolor sit amet, consectetuer adipiscing elit, sed diam </tspan><tspan x="0" y="8.4" class="D">nonummy nibh euismod tincidunt ut laoreet dolore magna aliquam </tspan><tspan x="0" y="13.5" class="D">erat volutpat. Ut wisi 
</tspan></text><path class="g" d="m1059.7 704h-381.9v-86.4h381.9z"/><text style="transform:matrix(2,0,0,2,701.476,645.324)" ><tspan x="0" y="0" class="C">LOREM IPSUM
</tspan></text><text style="transform:matrix(2,0,0,2,702.216,655.765)" ><tspan x="0" y="3.2" class="D">Lorem ipsum dolor sit amet, consectetuer adipiscing elit, sed diam </tspan><tspan x="0" y="8.4" class="D">nonummy nibh euismod tincidunt ut laoreet dolore magna aliquam </tspan><tspan x="0" y="13.5" class="D">erat volutpat. Ut wisi 
</tspan></text><path class="g" d="m1059.7 806h-381.9v-86.3h381.9z"/><text style="transform:matrix(2,0,0,2,701.476,747.343)" ><tspan x="0" y="0" class="C">LOREM IPSUM
</tspan></text><text style="transform:matrix(2,0,0,2,702.216,757.785)" ><tspan x="0" y="3.2" class="D">Lorem ipsum dolor sit amet, consectetuer adipiscing elit, sed diam </tspan><tspan x="0" y="8.4" class="D">nonummy nibh euismod tincidunt ut laoreet dolore magna aliquam </tspan><tspan x="0" y="13.5" class="D">erat volutpat. Ut wisi 
</tspan></text><text style="transform:matrix(2,0,0,2,1140.638,312.193)" ><tspan x="0" y="0" class="E">123,4
</tspan></text><text style="transform:matrix(2,0,0,2,1140.636,275.019)" ><tspan x="0" y="0" class="v" dx="0 1 1 1 1 1 1 1 1 1 1 1" >LOREM IPSUM
</tspan></text><text style="transform:matrix(2,0,0,2,1249.564,280.845)" ><tspan x="0" y="2.6" class="y">Lorem ipsum </tspan><tspan x="0" y="6.8" class="y">dolor sit amet, </tspan><tspan x="0" y="11.1" class="y">consectetuer </tspan><tspan x="0" y="15.3" class="y">adipiscing elit, 
</tspan></text><text style="transform:matrix(2,0,0,2,1141.369,400.861)" ><tspan x="0" y="2.6" class="y">Lorem ipsum dolor sit amet, consectetuer </tspan><tspan x="0" y="6.8" class="y">adipiscing elit, sed diam nonummy nibh </tspan><tspan x="0" y="11.1" class="y">euismod tincidunt ut laoreet dolore magna </tspan><tspan x="0" y="15.3" class="y">aliquam erat volutpat.
</tspan></text><text style="transform:matrix(2,0,0,2,1203.261,534.584)" ><tspan x="0" y="0" class="F">LOREM IPSUM
</tspan></text><text style="transform:matrix(2,0,0,2,1203.257,541.24)" ><tspan x="0" y="1.6" class="G">Lorem ipsum dolor sit amet, consectetuer </tspan><tspan x="0" y="4.1" class="G">adipiscing elit, sed diam nonummy nibh </tspan><tspan x="0" y="6.6" class="G">euismod tincidunt ut laoreet dolore magna </tspan><tspan x="0" y="9.2" class="G">aliquam erat 
</tspan></text><text style="transform:matrix(2,0,0,2,1153.566,550.098)" ><tspan x="0" y="0" class="H">75%
</tspan></text><path class="I" d="m1192.9 544.9c0 13.3-10.8 24.2-24.1 24.2-13.4 0-24.2-10.9-24.2-24.2 0-13.3 10.8-24.1 24.2-24.1 13.3 0 24.1 10.8 24.1 24.1z"/><path class="J" d="m1191.2 536c1.1 2.8 1.7 5.8 1.7 8.9 0 13.3-10.8 24.2-24.1 24.2-13.4 0-24.2-10.9-24.2-24.2 0-7 3-13.3 7.7-17.7"/><text style="transform:matrix(2,0,0,2,1203.261,611.861)" ><tspan x="0" y="0" class="F">LOREM IPSUM
</tspan></text><text style="transform:matrix(2,0,0,2,1203.257,618.517)" ><tspan x="0" y="1.6" class="G">Lorem ipsum dolor sit amet, consectetuer </tspan><tspan x="0" y="4.1" class="G">adipiscing elit, sed diam nonummy nibh </tspan><tspan x="0" y="6.6" class="G">euismod tincidunt ut laoreet dolore magna </tspan><tspan x="0" y="9.2" class="G">aliquam erat 
</tspan></text><text style="transform:matrix(2,0,0,2,1153.566,627.374)" ><tspan x="0" y="0" class="H">75%
</tspan></text><path class="I" d="m1192.9 622.2c0 13.3-10.8 24.1-24.1 24.1-13.4 0-24.2-10.8-24.2-24.1 0-13.3 10.8-24.2 24.2-24.2 13.3 0 24.1 10.9 24.1 24.2z"/><path class="J" d="m1186.5 638.5c-4.4 4.8-10.7 7.8-17.7 7.8-13.4 0-24.2-10.8-24.2-24.1 0-7 3-13.3 7.7-17.7"/><text style="transform:matrix(2,0,0,2,1203.261,689.138)" ><tspan x="0" y="0" class="F">LOREM IPSUM
</tspan></text><text style="transform:matrix(2,0,0,2,1203.257,695.792)" ><tspan x="0" y="1.6" class="G">Lorem ipsum dolor sit amet, consectetuer </tspan><tspan x="0" y="4.1" class="G">adipiscing elit, sed diam nonummy nibh </tspan><tspan x="0" y="6.6" class="G">euismod tincidunt ut laoreet dolore magna </tspan><tspan x="0" y="9.2" class="G">aliquam erat 
</tspan></text><text style="transform:matrix(2,0,0,2,1153.566,704.652)" ><tspan x="0" y="0" class="H">75%
</tspan></text><path class="I" d="m1192.9 699.5c0 13.3-10.8 24.1-24.1 24.1-13.4 0-24.2-10.8-24.2-24.1 0-13.4 10.8-24.2 24.2-24.2 13.3 0 24.1 10.8 24.1 24.2z"/><path class="J" d="m1155.3 719.5c-6.5-4.4-10.7-11.7-10.7-20 0-7 3-13.3 7.7-17.7"/><text style="transform:matrix(2,0,0,2,1203.261,766.413)" ><tspan x="0" y="0" class="F">LOREM IPSUM
</tspan></text><text style="transform:matrix(2,0,0,2,1203.257,773.068)" ><tspan x="0" y="1.6" class="G">Lorem ipsum dolor sit amet, consectetuer </tspan><tspan x="0" y="4.1" class="G">adipiscing elit, sed diam nonummy nibh </tspan><tspan x="0" y="6.6" class="G">euismod tincidunt ut laoreet dolore magna </tspan><tspan x="0" y="9.2" class="G">aliquam erat 
</tspan></text><text style="transform:matrix(2,0,0,2,1153.566,781.925)" ><tspan x="0" y="0" class="H">75%
</tspan></text><path class="I" d="m1192.9 776.7c0 13.4-10.8 24.2-24.1 24.2-13.4 0-24.2-10.8-24.2-24.2 0-13.3 10.8-24.1 24.2-24.1 13.3 0 24.1 10.8 24.1 24.1z"/><path class="J" d="m1144.7 775.2c0.4-6.4 3.2-12.1 7.6-16.1"/><text style="transform:matrix(2,0,0,2,1140.636,392.804)" ><tspan x="0" y="0" class="K">LOREM IPSUM
</tspan></text><path class="L" d="m770.2 930.9q-1.3 1.4-2.2 2.9l-0.9-0.4c-0.2-0.6-0.7-1.1-1.4-1-0.6 0.1-1.1 0.7-1 1.4 0.1 0.6 0.7 1.1 1.3 1q0.2 0 0.4-0.1l0.9 0.5q-0.8 1.7-1.1 3.5l1.5 0.2c0.5-2.6 1.7-5 3.6-6.9z"/><path class="L" d="m781.2 926.3q-0.5 0-1 0.1l-0.2-1.3c0.4-0.3 0.6-0.8 0.5-1.3 0-0.8-0.8-1.3-1.5-1.2-0.8 0.1-1.4 0.8-1.3 1.6 0.1 0.5 0.4 0.9 0.8 1.1l0.2 1.2q-2.2 0.4-4.2 1.3l0.7 1.4q2.8-1.4 6-1.4 1.5 0 2.9 0.4l0.4-1.5q-1.7-0.4-3.3-0.4z"/><path class="L" d="m794.4 931.4c0.7-0.1 1.1-0.7 1-1.3 0-0.7-0.6-1.2-1.3-1.1-0.6 0.1-1.1 0.6-1.1 1.2l-0.8 0.8q-1.3-1.3-2.8-2.3l-0.8 1.3c2.2 1.4 4 3.4 5.1 5.8l1.4-0.6q-0.8-1.7-1.9-3.1l0.8-0.7q0.2 0 0.4 0z"/><path class="L" d="m780.1 946.7q-1.2 0.1-2.3 0.1c-1.8 0-3.5-0.1-5-0.3-0.8-0.2-1.7-0.4-2.5-0.6 2.1 3.7 6.1 6.2 10.8 6.2 5.7 0 10.5-3.8 11.9-9q-2.1 1.4-5 2.3c-2.3 0.7-5.1 1.2-7.9 1.3z"/><path fill-rule="evenodd" class="L" d="m793.2 939.8q0.1 0.5 0.1 1.1c-2.7 2.4-7.5 4-13.3 4.3-5.3 0.3-9.4-0.5-10.7-1.4q-0.3-1.3-0.3-2.6c0-6.5 5.5-11.8 12.2-11.8 6.1 0 11.3 4.4 12 10.4zm-12.6-1.1c0-2.1-1.7-3.7-3.7-3.7-2.1 0-3.7 1.6-3.7 3.7 0 2 1.6 3.7 3.7 3.7 2 0 3.7-1.7 3.7-3.7zm8.5-0.8c0-1.5-1.3-2.8-2.8-2.8-1.5 0-2.7 1.3-2.7 2.8 0 1.5 1.2 2.7 2.7 2.7 1.5 0 2.8-1.2 2.8-2.7z"/><path class="L" d="m813.2 933.1c-0.6-0.2-1.6-0.6-2.8-0.5-1.1 0.2-1.7 0.7-1.7 2v1.8h4.5v3.4h-4.5v10.9h-3.8v-10.9h-2.7v-3.4h2.7v-1.8c0-3.4 1.8-5.6 5.1-5.6 1.3 0 2.3 0.3 3.2 0.6z"/><path class="L" d="m822.6 939.8q-0.5-0.1-1.1-0.1c-1.7 0-3 1.1-3 3.2v7.8h-3.8v-14.3h3.7v1.5c0.9-1.3 2.3-1.9 4-1.9 0.9 0 1.7 0.2 2.2 0.7z"/><path fill-rule="evenodd" class="L" d="m837.9 943.5c0 0.5 0 1 0 1.3h-10.2c0.4 2.1 1.9 3 3.7 3 1.2 0 2.6-0.5 3.6-1.4l2.3 2.5c-1.7 1.5-3.7 2.2-6.1 2.2-4.4 0-7.5-3-7.5-7.5 0-4.5 3-7.6 7.3-7.6 4.1 0 6.9 3 6.9 7.5zm-10.2-1.3h6.4c-0.4-1.9-1.5-2.9-3.2-2.9-1.8 0-2.9 1.1-3.2 2.9z"/><path fill-rule="evenodd" class="L" d="m853.2 943.5c0 0.5 0 1 0 1.3h-10.2c0.4 2.1 1.9 3 3.7 3 1.2 0 2.6-0.5 3.6-1.4l2.3 2.5c-1.7 1.5-3.7 2.2-6.1 2.2-4.4 0-7.5-3-7.5-7.5 0-4.5 3-7.6 7.3-7.6 4.1 0 6.9 3 6.9 7.5zm-10.2-1.3h6.4c-0.4-1.9-1.5-2.9-3.2-2.9-1.8 0-2.9 1.1-3.2 2.9z"/><path fill-rule="evenodd" class="L" d="m869.9 943.5c0 4.3-3 7.6-6.9 7.6-1.9 0-3.3-0.8-4.2-1.9v7.4h-3.9v-20.2h3.8v1.5c0.9-1.1 2.3-1.9 4.3-1.9 3.9 0 6.9 3.2 6.9 7.5zm-11.3 0c0 2.3 1.5 4 3.7 4 2.2 0 3.7-1.8 3.7-4 0-2.2-1.5-3.9-3.7-3.9-2.2 0-3.7 1.7-3.7 3.9z"/><path class="L" d="m876.1 931.7c0 1.4-1 2.4-2.4 2.4-1.4 0-2.5-1-2.5-2.4 0-1.4 1.1-2.5 2.5-2.5 1.4 0 2.4 1.1 2.4 2.5zm-0.5 19h-3.8v-14.3h3.8z"/><path class="L" d="m882.1 941.5l5.4-5.1h4.7l-7 6.7 7 7.6h-4.7l-5.4-5.8v5.8h-3.9v-21.3h3.9z"/><path fill-rule="evenodd" class="L" d="m618.8 950.6v-2.1c-1 1.4-2.8 2.4-4.8 2.4-3.6 0-6.2-2.8-6.2-7.4 0-4.5 2.5-7.4 6.2-7.4 2 0 3.7 0.9 4.8 2.5v-7.6h2.2v19.6zm0-3.9v-6.4c-0.8-1.2-2.5-2.3-4.2-2.3-2.9 0-4.6 2.4-4.6 5.5 0 3.2 1.7 5.5 4.6 5.5 1.7 0 3.4-1 4.2-2.3z"/><path fill-rule="evenodd" class="L" d="m623.9 943.5c0-4.1 2.9-7.4 6.9-7.4 4.3 0 6.8 3.3 6.8 7.6v0.5h-11.4c0.2 2.7 2 4.9 5.1 4.9 1.6 0 3.2-0.6 4.3-1.8l1.1 1.5c-1.4 1.4-3.3 2.1-5.6 2.1-4.2 0-7.2-3-7.2-7.4zm6.9-5.6c-3 0-4.5 2.5-4.6 4.7h9.3c-0.1-2.1-1.5-4.7-4.7-4.7z"/><path class="L" d="m639.2 948.7l1.2-1.6c0.9 1.1 2.7 2 4.6 2 2.2 0 3.4-1 3.4-2.4 0-3.4-8.8-1.3-8.8-6.6 0-2.1 1.9-4 5.3-4 2.4 0 4.1 0.9 5.2 2l-1 1.6c-0.9-1.1-2.4-1.8-4.2-1.8-2 0-3.2 0.9-3.2 2.2 0 3.1 8.8 1 8.8 6.6 0 2.3-1.9 4.2-5.6 4.2-2.3 0-4.3-0.7-5.7-2.2z"/><path class="L" d="m653 932.9c0-0.8 0.6-1.5 1.4-1.5 0.8 0 1.5 0.7 1.5 1.5 0 0.9-0.7 1.5-1.5 1.5-0.8 0-1.4-0.6-1.4-1.5zm0.3 17.7v-14.2h2.2v14.2z"/><path fill-rule="evenodd" class="L" d="m659.2 954.2l1.1-1.6c1.1 1.4 2.6 1.9 4.6 1.9 2.3 0 4.5-1.1 4.5-4.2v-2.1c-1 1.5-2.7 2.6-4.7 2.6-3.7 0-6.3-2.8-6.3-7.4 0-4.5 2.6-7.3 6.3-7.3 1.9 0 3.6 0.9 4.7 2.5v-2.2h2.2v13.8c0 4.7-3.3 6.1-6.7 6.1-2.4 0-4.1-0.4-5.7-2.1zm10.2-7.7v-6.2c-0.7-1.2-2.4-2.3-4.2-2.3-2.8 0-4.5 2.3-4.5 5.4 0 3.1 1.7 5.4 4.5 5.4 1.8 0 3.5-1.1 4.2-2.3z"/><path class="L" d="m684.8 950.6v-9.3c0-2.5-1.2-3.3-3.1-3.3-1.8 0-3.4 1.1-4.2 2.2v10.4h-2.2v-14.2h2.2v2.1c1-1.2 2.9-2.4 5-2.4 3 0 4.5 1.5 4.5 4.5v10z"/><path fill-rule="evenodd" class="L" d="m689.9 943.5c0-4.1 2.9-7.4 6.9-7.4 4.3 0 6.8 3.3 6.8 7.6v0.5h-11.4c0.2 2.7 2 4.9 5.1 4.9 1.6 0 3.2-0.6 4.3-1.8l1.1 1.5c-1.4 1.4-3.3 2.1-5.6 2.1-4.2 0-7.2-3-7.2-7.4zm6.9-5.6c-3 0-4.5 2.5-4.6 4.7h9.3c-0.1-2.1-1.5-4.7-4.7-4.7z"/><path fill-rule="evenodd" class="L" d="m716.7 950.6v-2.1c-1.1 1.4-2.8 2.4-4.8 2.4-3.7 0-6.3-2.8-6.3-7.4 0-4.5 2.6-7.4 6.3-7.4 1.9 0 3.7 0.9 4.8 2.5v-7.6h2.2v19.6zm0-3.9v-6.4c-0.8-1.2-2.5-2.3-4.3-2.3-2.8 0-4.5 2.4-4.5 5.5 0 3.2 1.7 5.5 4.5 5.5 1.8 0 3.5-1 4.3-2.3z"/><path fill-rule="evenodd" class="L" d="m729.4 950.6v-19.6h2.2v7.6c1.1-1.6 2.8-2.5 4.8-2.5 3.6 0 6.3 2.9 6.3 7.4 0 4.6-2.7 7.4-6.3 7.4-2 0-3.8-1-4.8-2.4v2.1zm6.4-1.6c2.9 0 4.6-2.3 4.6-5.5 0-3.1-1.7-5.5-4.6-5.5-1.7 0-3.5 1.1-4.2 2.3v6.4c0.7 1.3 2.5 2.3 4.2 2.3z"/><path class="L" d="m745.1 954.1c0.3 0.2 0.8 0.3 1.2 0.3 0.9 0 1.6-0.4 2.1-1.5l0.9-2.2-5.9-14.3h2.4l4.7 11.6 4.7-11.6h2.4l-7.1 17c-0.9 2.1-2.3 2.9-4.2 2.9-0.5 0-1.2-0.1-1.6-0.2z"/></svg>