<svg version="1.2" xmlns="http://www.w3.org/2000/svg" viewBox="0 0 1500 1000" width="1500" height="1000"><defs><linearGradient id="P" gradientUnits="userSpaceOnUse"/><linearGradient id="g1" x2="1" href="#P" gradientTransform="matrix(1814.916,1586.926,-1544.947,1766.906,703.379,-332.226)"><stop offset=".2" stop-color="#5f53e7"/><stop offset=".68" stop-color="#bf6fb7"/><stop offset="1" stop-color="#e07c7f"/></linearGradient><clipPath clipPathUnits="userSpaceOnUse" id="cp1"><path d="m1381.93 855.24h-1270v-714.38h1270z"/></clipPath><linearGradient id="g2" x2="1" href="#P" gradientTransform="matrix(1356.221,914.019,-819.475,1215.938,610.89,-86.229)"><stop offset=".1" stop-color="#766ce7"/><stop offset=".33" stop-color="#bf6fb7"/><stop offset=".44" stop-color="#e07c7f"/><stop offset=".8" stop-color="#efd04f"/></linearGradient><linearGradient id="g3" x2="1" href="#P" gradientTransform="matrix(221.213,985.98,-985.981,221.213,768.046,43.501)"><stop offset=".1" stop-color="#766ce7"/><stop offset=".33" stop-color="#bf6fb7"/><stop offset=".44" stop-color="#e07c7f"/><stop offset=".72" stop-color="#efd04f"/></linearGradient><linearGradient id="g4" x2="1" href="#P" gradientTransform="matrix(-665.034,82.151,-69.708,-564.306,519.452,1255.976)"><stop offset=".1" stop-color="#766ce7"/><stop offset=".33" stop-color="#bf6fb7"/><stop offset=".44" stop-color="#e07c7f"/><stop offset=".72" stop-color="#efd04f"/></linearGradient><linearGradient id="g5" x2="1" href="#P" gradientTransform="matrix(665.034,-82.151,69.708,564.306,365.5,278.43)"><stop offset=".1" stop-color="#766ce7"/><stop offset=".33" stop-color="#bf6fb7"/><stop offset=".44" stop-color="#e07c7f"/><stop offset=".72" stop-color="#efd04f"/></linearGradient><linearGradient id="g6" x2="1" href="#P" gradientTransform="matrix(-665.035,82.151,-69.708,-564.306,791.973,1183.878)"><stop offset=".1" stop-color="#766ce7"/><stop offset=".33" stop-color="#bf6fb7"/><stop offset=".44" stop-color="#e07c7f"/><stop offset=".72" stop-color="#efd04f"/></linearGradient><linearGradient id="g7" x2="1" href="#P" gradientTransform="matrix(-665.035,82.151,-69.708,-564.307,725.828,1350.564)"><stop offset=".1" stop-color="#766ce7"/><stop offset=".33" stop-color="#bf6fb7"/><stop offset=".44" stop-color="#e07c7f"/><stop offset=".72" stop-color="#efd04f"/></linearGradient><linearGradient id="g8" x2="1" href="#P" gradientTransform="matrix(-838.466,103.575,-87.173,-705.692,602.579,1461.3)"><stop offset=".1" stop-color="#766ce7"/><stop offset=".33" stop-color="#bf6fb7"/><stop offset=".44" stop-color="#e07c7f"/><stop offset=".72" stop-color="#efd04f"/></linearGradient><linearGradient id="g9" x2="1" href="#P" gradientTransform="matrix(-377.051,46.577,-36.914,-298.827,649.548,2272.043)"><stop offset=".1" stop-color="#766ce7"/><stop offset=".33" stop-color="#bf6fb7"/><stop offset=".44" stop-color="#e07c7f"/><stop offset=".72" stop-color="#efd04f"/></linearGradient><linearGradient id="g10" x2="1" href="#P" gradientTransform="matrix(377.051,-46.577,36.914,298.827,-129.355,-861.209)"><stop offset=".1" stop-color="#766ce7"/><stop offset=".33" stop-color="#bf6fb7"/><stop offset=".44" stop-color="#e07c7f"/><stop offset=".72" stop-color="#efd04f"/></linearGradient><linearGradient id="g11" x2="1" href="#P" gradientTransform="matrix(-377.051,46.577,-36.914,-298.827,773.902,2248.233)"><stop offset=".1" stop-color="#766ce7"/><stop offset=".33" stop-color="#bf6fb7"/><stop offset=".44" stop-color="#e07c7f"/><stop offset=".72" stop-color="#efd04f"/></linearGradient><linearGradient id="g12" x2="1" href="#P" gradientTransform="matrix(-377.051,46.577,-36.914,-298.827,625.735,2398.382)"><stop offset=".1" stop-color="#766ce7"/><stop offset=".33" stop-color="#bf6fb7"/><stop offset=".44" stop-color="#e07c7f"/><stop offset=".72" stop-color="#efd04f"/></linearGradient><linearGradient id="g13" x2="1" href="#P" gradientTransform="matrix(377.051,-46.577,36.914,298.827,308.53,-803.665)"><stop offset=".1" stop-color="#766ce7"/><stop offset=".33" stop-color="#bf6fb7"/><stop offset=".44" stop-color="#e07c7f"/><stop offset=".72" stop-color="#efd04f"/></linearGradient><linearGradient id="g14" x2="1" href="#P" gradientTransform="matrix(377.052,-46.577,36.914,298.827,330.361,-704.418)"><stop offset=".1" stop-color="#766ce7"/><stop offset=".33" stop-color="#bf6fb7"/><stop offset=".44" stop-color="#e07c7f"/><stop offset=".72" stop-color="#efd04f"/></linearGradient><linearGradient id="g15" x2="1" href="#P" gradientTransform="matrix(377.052,-46.577,36.914,298.827,173.596,-756.012)"><stop offset=".1" stop-color="#766ce7"/><stop offset=".33" stop-color="#bf6fb7"/><stop offset=".44" stop-color="#e07c7f"/><stop offset=".72" stop-color="#efd04f"/></linearGradient><linearGradient id="g16" x2="1" href="#P" gradientTransform="matrix(-377.051,46.577,-36.914,-298.827,789.777,2131.816)"><stop offset=".1" stop-color="#766ce7"/><stop offset=".33" stop-color="#bf6fb7"/><stop offset=".44" stop-color="#e07c7f"/><stop offset=".72" stop-color="#efd04f"/></linearGradient><linearGradient id="g17" x2="1" href="#P" gradientTransform="matrix(377.051,-46.577,36.914,298.827,447.436,-749.425)"><stop offset=".1" stop-color="#766ce7"/><stop offset=".33" stop-color="#bf6fb7"/><stop offset=".44" stop-color="#e07c7f"/><stop offset=".72" stop-color="#efd04f"/></linearGradient><linearGradient id="g18" x2="1" href="#P" gradientTransform="matrix(377.051,-46.577,36.914,298.827,-146.553,-787.128)"><stop offset=".1" stop-color="#766ce7"/><stop offset=".33" stop-color="#bf6fb7"/><stop offset=".44" stop-color="#e07c7f"/><stop offset=".72" stop-color="#efd04f"/></linearGradient><linearGradient id="g19" x2="1" href="#P" gradientTransform="matrix(-329.505,274.588,-244.632,-293.558,1258.744,531.997)"><stop offset=".2" stop-color="#766ce7"/><stop offset=".48" stop-color="#bf6fb7"/><stop offset="1" stop-color="#e07c7f"/></linearGradient></defs><style>tspan{white-space:pre}.a{fill:url(#g1)}.b{fill:#fff}.c{fill:url(#g2)}.d{fill:url(#g3)}.e{fill:url(#g4)}.f{fill:url(#g5)}.g{fill:url(#g6)}.h{fill:url(#g7)}.i{fill:url(#g8)}.j{fill:url(#g9)}.k{fill:url(#g10)}.l{fill:url(#g11)}.m{fill:url(#g12)}.n{fill:url(#g13)}.o{fill:url(#g14)}.p{fill:url(#g15)}.q{fill:url(#g16)}.r{fill:url(#g17)}.s{fill:url(#g18)}.t{font-size: 30px;fill: #fefefe;font-weight: bold;font-family: "Metropolis"}.u{font-size: 12px;fill: #fefefe;font-family: "Metropolis"}.v{fill:#fefefe}.w{font-size: 12px;text-transform: uppercase;fill: #766ce7;font-weight: bold;font-family: "Metropolis"}.x{font-size: 6px;fill: #999999;font-family: "Metropolis"}.y{fill:#766ce7}.z{fill:none;stroke:#fff;stroke-linecap:round;stroke-linejoin:round;stroke-width:1.7}.A{fill:#e8e6ff}.B{fill:url(#g19)}.C{font-size: 8px;text-transform: uppercase;fill: #fefefe;font-weight: bold;font-family: "Metropolis"}.D{fill:#766ce7;stroke:#766ce7;stroke-miterlimit:10;stroke-width:.7}</style><path class="a" d="m1500 1000h-1500v-1000h1500z"/><path class="b" d="m1383.9 855.2h-1270v-714.3h1270z"/><g clip-path="url(#cp1)"><path class="c" d="m1381.9 855.2h-1270v-714.3h1270z"/><path class="d" d="m812.7 340.6c0 54.1-43.8 97.9-97.9 97.9-54 0-97.8-43.8-97.8-97.9 0-54 43.8-97.9 97.8-97.9 54.1 0 97.9 43.9 97.9 97.9z"/><path class="e" d="m109.1 903.5c-13.7-13.7-13.7-35.9 0-49.6l139-139c13.7-13.6 35.8-13.6 49.5 0 13.7 13.7 13.7 35.9 0 49.6l-139 139c-13.7 13.6-35.8 13.6-49.5 0z"/><path class="f" d="m775.9 630.9c13.6 13.7 13.6 35.9 0 49.6l-139 139c-13.7 13.6-35.9 13.6-49.6 0-13.6-13.7-13.6-35.9 0-49.6l139-139c13.7-13.6 35.9-13.6 49.6 0z"/><path class="g" d="m381.6 831.4c-13.7-13.7-13.7-35.9 0-49.6l139-139c13.7-13.6 35.9-13.6 49.5 0 13.7 13.7 13.7 35.9 0 49.6l-139 139c-13.6 13.6-35.8 13.6-49.5 0z"/><path class="h" d="m315.5 998.1c-13.7-13.7-13.7-35.9 0-49.6l139-139c13.7-13.6 35.8-13.6 49.5 0 13.7 13.7 13.7 35.9 0 49.6l-139 139c-13.7 13.6-35.9 13.6-49.5 0z"/><path class="i" d="m60.9 856.3c-13.7-13.7-13.7-35.8 0-49.5l195.9-198.5c13.6-13.7 35.8-13.7 49.5 0 13.7 13.6 13.7 35.8 0 49.5l-195.9 198.5c-13.7 13.7-35.9 13.7-49.5 0z"/><path class="j" d="m246.5 772.6c-1.5-1.6-1.5-4.1 0-5.6l118.8-118.8c1.6-1.6 4.1-1.6 5.6 0 1.6 1.5 1.6 4 0 5.6l-118.8 118.8c-1.5 1.5-4 1.5-5.6 0z"/><path class="k" d="m273.7 638.2c1.5 1.6 1.5 4.1 0 5.7l-118.8 118.8c-1.6 1.5-4.1 1.5-5.6 0-1.6-1.6-1.6-4.1 0-5.6l118.8-118.9c1.5-1.5 4-1.5 5.6 0z"/><path class="l" d="m370.9 748.8c-1.6-1.6-1.6-4.1 0-5.6l118.8-118.8c1.5-1.6 4-1.6 5.6 0 1.5 1.5 1.5 4 0 5.6l-118.8 118.8c-1.6 1.5-4.1 1.5-5.6 0z"/><path class="m" d="m222.7 898.9c-1.6-1.5-1.6-4 0-5.6l118.8-118.8c1.5-1.5 4.1-1.5 5.6 0 1.6 1.6 1.6 4.1 0 5.6l-118.8 118.8c-1.5 1.6-4.1 1.6-5.6 0z"/><path class="n" d="m711.6 695.8c1.5 1.5 1.5 4.1 0 5.6l-118.8 118.8c-1.6 1.6-4.1 1.6-5.6 0-1.6-1.5-1.6-4.1 0-5.6l118.8-118.8c1.5-1.6 4-1.6 5.6 0z"/><path class="o" d="m733.4 795c1.5 1.6 1.5 4.1 0 5.6l-118.8 118.8c-1.6 1.6-4.1 1.6-5.6 0-1.6-1.5-1.6-4 0-5.6l118.8-118.8c1.5-1.5 4-1.5 5.6 0z"/><path class="p" d="m576.6 743.4c1.6 1.6 1.6 4.1 0 5.6l-118.8 118.8c-1.5 1.6-4 1.6-5.6 0-1.5-1.5-1.5-4 0-5.6l118.8-118.8c1.6-1.5 4.1-1.5 5.6 0z"/><path class="q" d="m386.7 632.4c-1.5-1.6-1.5-4.1 0-5.7l118.8-118.8c1.6-1.5 4.1-1.5 5.6 0 1.6 1.6 1.6 4.1 0 5.7l-118.8 118.8c-1.5 1.5-4 1.5-5.6 0z"/><path class="r" d="m850.5 750c1.5 1.6 1.5 4.1 0 5.6l-118.8 118.8c-1.6 1.6-4.1 1.6-5.6 0-1.6-1.5-1.6-4 0-5.6l118.8-118.8c1.5-1.5 4-1.5 5.6 0z"/><path class="s" d="m256.5 712.3c1.5 1.6 1.5 4.1 0 5.6l-118.8 118.8c-1.6 1.6-4.1 1.6-5.6 0-1.6-1.5-1.6-4 0-5.6l118.8-118.8c1.5-1.5 4-1.5 5.6 0z"/><text style="transform:matrix(2,0,0,2,192.743,364.016)" ><tspan x="0" y="0" class="t">Welcome to website
</tspan></text><text style="transform:matrix(2,0,0,2,203.368,388.119)" ><tspan x="0" y="9" class="u">Lorem ipsum dolor sit amet, consectetuer </tspan><tspan x="0" y="23.3" class="u">adipiscing elit, sed diam nonummy nibh euismod </tspan><tspan x="0" y="37.6" class="u">tincidunt ut laoreet dolore magna aliquam erat </tspan><tspan x="0" y="51.9" class="u">volutpat. 
</tspan></text><path class="v" d="m1381.9 855.2h-507v-714.3h507z"/><text style="transform:matrix(2,0,0,2,1055.394,380.223)" ><tspan x="0" y="0" class="w">USER LOGIN
</tspan></text><text style="transform:matrix(2,0,0,2,1177.767,559.567)" ><tspan x="0" y="0" class="x">Forgot password?
</tspan></text><text style="transform:matrix(2,0,0,2,1015.152,559.567)" ><tspan x="0" y="0" class="x">Remember
</tspan></text><path class="y" d="m1006.6 556.2c0 5.5-4.5 9.9-10 9.9-5.4 0-9.9-4.4-9.9-9.9 0-5.5 4.5-9.9 9.9-9.9 5.5 0 10 4.4 10 9.9z"/><path class="z" d="m1003.2 552.3l-7.7 7.8-5.5-5.5"/><path class="A" d="m1261.5 465.3h-257.9c-11 0-19.9-8.9-19.9-19.8 0-11 8.9-19.9 19.9-19.9h257.9c11 0 19.9 8.9 19.9 19.9 0 10.9-8.9 19.8-19.9 19.8z"/><path fill-rule="evenodd" class="y" d="m1033 455.4h-1.5c0-4.6-3.8-8.4-8.4-8.4-4.6 0-8.4 3.8-8.4 8.4h-1.5c0-2.7 1-5.2 2.9-7 1.1-1.1 2.3-1.9 3.7-2.4-1.5-1-2.4-2.8-2.4-4.7 0-3.2 2.5-5.8 5.7-5.8 3.2 0 5.7 2.6 5.7 5.8 0 1.9-1 3.7-2.5 4.7 1.4 0.5 2.7 1.3 3.8 2.4 1.9 1.8 2.9 4.3 2.9 7zm-5.7-14.1c0-2.3-1.9-4.2-4.2-4.2-2.3 0-4.2 1.9-4.2 4.2 0 2.3 1.9 4.2 4.2 4.2 2.3 0 4.2-1.9 4.2-4.2z"/><path class="B" d="m1177.2 636h-97.9c-10.9 0-19.8-8.9-19.8-19.9 0-10.9 8.9-19.8 19.8-19.8h97.9c11 0 19.9 8.9 19.9 19.8 0 11-8.9 19.9-19.9 19.9z"/><text style="transform:matrix(2,0,0,2,1103.122,620.555)" ><tspan x="0" y="0" class="C">LOGIN
</tspan></text><path class="A" d="m1261.9 527.5h-258c-11 0-19.8-8.9-19.8-19.9 0-10.9 8.8-19.8 19.8-19.8h258c10.9 0 19.8 8.9 19.8 19.8 0 11-8.9 19.9-19.8 19.9z"/><path fill-rule="evenodd" class="D" d="m1029.8 507.7v7.2c0 1.5-1.1 2.7-2.6 2.7h-10.9c-1.4 0-2.6-1.2-2.6-2.7v-7.2c0-1.3 0.9-2.4 2.2-2.6v-2.1c0-2.9 2.6-5.3 5.9-5.3 3.2 0 5.8 2.4 5.8 5.3v2.1c1.3 0.2 2.2 1.3 2.2 2.6zm-13.2-2.6h10.3v-2.1c0-2.5-2.3-4.5-5.1-4.5-2.9 0-5.2 2-5.2 4.5zm12.5 2.7c0-1.1-0.8-1.9-1.9-1.9h-10.9c-1 0-1.9 0.8-1.9 1.9v7.2c0 1 0.9 1.9 1.9 1.9h10.9c1.1 0 1.9-0.9 1.9-1.9z"/><path fill-rule="evenodd" class="D" d="m1023.2 509.5v2.2c0 0.8-0.6 1.5-1.4 1.5-0.8 0-1.5-0.7-1.5-1.5v-2.2c0-0.8 0.7-1.5 1.5-1.5 0.8 0 1.4 0.7 1.4 1.5zm-0.7 0c0-0.4-0.3-0.8-0.7-0.8-0.4 0-0.8 0.4-0.8 0.8v2.2c0 0.4 0.4 0.7 0.8 0.7 0.4 0 0.7-0.3 0.7-0.7z"/></g><path class="b" d="m770.5 927.7q-1.3 1.4-2.2 3l-1-0.5c-0.1-0.6-0.7-1-1.3-1-0.7 0.1-1.1 0.7-1.1 1.4 0.1 0.6 0.7 1.1 1.4 1q0.2 0 0.4-0.1l0.9 0.5q-0.8 1.7-1.1 3.5l1.5 0.3c0.4-2.6 1.7-5.1 3.6-7z"/><path class="b" d="m781.5 923.1q-0.5 0-1 0l-0.2-1.2c0.4-0.3 0.6-0.8 0.6-1.3-0.1-0.8-0.8-1.4-1.6-1.3-0.8 0.1-1.4 0.8-1.3 1.6 0.1 0.5 0.4 1 0.8 1.2l0.2 1.2q-2.2 0.4-4.2 1.3l0.7 1.4q2.8-1.4 6-1.4 1.5 0 3 0.4l0.3-1.5q-1.6-0.4-3.3-0.4z"/><path class="b" d="m794.8 928.2c0.6-0.1 1.1-0.7 1-1.3-0.1-0.7-0.7-1.2-1.3-1.1-0.6 0.1-1.1 0.6-1.1 1.2l-0.8 0.8q-1.3-1.3-2.8-2.3l-0.9 1.3c2.3 1.4 4.1 3.4 5.2 5.8l1.4-0.6q-0.8-1.7-1.9-3.1l0.8-0.7q0.2 0.1 0.4 0z"/><path class="b" d="m780.4 943.6q-1.2 0.1-2.3 0.1c-1.8 0-3.5-0.1-5-0.4-0.8-0.1-1.7-0.3-2.5-0.6 2.1 3.8 6.1 6.3 10.8 6.3 5.7 0 10.6-3.8 11.9-9q-2 1.3-4.9 2.2c-2.4 0.8-5.1 1.2-8 1.4z"/><path fill-rule="evenodd" class="b" d="m793.6 936.6q0.1 0.6 0.1 1.2c-2.7 2.4-7.6 3.9-13.4 4.3-5.3 0.3-9.4-0.5-10.7-1.5q-0.3-1.2-0.3-2.5c0-6.6 5.5-11.9 12.2-11.9 6.2 0 11.4 4.4 12.1 10.4zm-12.7-1.1c0-2-1.7-3.7-3.7-3.7-2.1 0-3.7 1.7-3.7 3.7 0 2.1 1.6 3.7 3.7 3.7 2 0 3.7-1.6 3.7-3.7zm8.5-0.8c0-1.5-1.2-2.7-2.7-2.7-1.5 0-2.7 1.2-2.7 2.7 0 1.5 1.2 2.7 2.7 2.7 1.5 0 2.7-1.2 2.7-2.7z"/><path class="b" d="m813.7 929.9c-0.6-0.2-1.7-0.6-2.8-0.5-1.1 0.2-1.7 0.7-1.7 2.1v1.7h4.5v3.4h-4.5v11h-3.9v-11h-2.7v-3.4h2.7v-1.8c0-3.4 1.8-5.6 5.2-5.6 1.3 0 2.3 0.3 3.2 0.6z"/><path class="b" d="m823.1 936.6q-0.5-0.1-1.1-0.1c-1.8 0-3 1.1-3 3.2v7.9h-3.9v-14.4h3.8v1.6c0.9-1.4 2.3-2 4.1-2 0.8 0 1.7 0.3 2.2 0.7z"/><path fill-rule="evenodd" class="b" d="m838.5 940.4c0 0.4 0 1-0.1 1.3h-10.2c0.4 2.1 1.9 3 3.7 3 1.3 0 2.6-0.5 3.7-1.4l2.2 2.5c-1.6 1.5-3.7 2.2-6.1 2.2-4.4 0-7.5-3-7.5-7.6 0-4.5 3-7.6 7.3-7.6 4.1 0 7 3.1 7 7.6zm-10.3-1.4h6.4c-0.3-1.8-1.5-2.9-3.1-2.9-1.9 0-2.9 1.2-3.3 2.9z"/><path fill-rule="evenodd" class="b" d="m853.9 940.4c0 0.4-0.1 1-0.1 1.3h-10.2c0.4 2.1 1.9 3 3.7 3 1.2 0 2.6-0.5 3.6-1.4l2.3 2.5c-1.6 1.5-3.7 2.2-6.1 2.2-4.5 0-7.5-3-7.5-7.6 0-4.5 3-7.6 7.3-7.6 4.1 0 7 3.1 7 7.6zm-10.3-1.4h6.4c-0.4-1.8-1.5-2.9-3.2-2.9-1.8 0-2.9 1.2-3.2 2.9z"/><path fill-rule="evenodd" class="b" d="m870.6 940.4c0 4.3-3 7.6-6.9 7.6-2 0-3.3-0.8-4.3-1.9v7.4h-3.8v-20.3h3.8v1.6c0.9-1.2 2.3-2 4.2-2 4 0 7 3.3 7 7.6zm-11.4 0c0 2.3 1.5 4 3.7 4 2.3 0 3.8-1.8 3.8-4 0-2.2-1.5-4-3.8-4-2.2 0-3.7 1.7-3.7 4z"/><path class="b" d="m876.9 928.5c0 1.4-1.1 2.4-2.5 2.4-1.4 0-2.5-1-2.5-2.4 0-1.4 1.1-2.5 2.5-2.5 1.4 0 2.5 1.1 2.5 2.5zm-0.6 19.1h-3.8v-14.4h3.8z"/><path class="b" d="m882.8 938.3l5.5-5.1h4.7l-7 6.8 7.1 7.6h-4.8l-5.5-5.8v5.8h-3.9v-21.4h3.9z"/><path fill-rule="evenodd" class="b" d="m618.5 947.5v-2.2c-1.1 1.5-2.8 2.5-4.8 2.5-3.7 0-6.4-2.8-6.4-7.4 0-4.6 2.6-7.5 6.4-7.5 1.9 0 3.6 0.9 4.8 2.5v-7.6h2.2v19.7zm0-3.9v-6.4c-0.8-1.3-2.5-2.3-4.3-2.3-2.9 0-4.6 2.3-4.6 5.5 0 3.1 1.7 5.4 4.6 5.4 1.8 0 3.5-1 4.3-2.2z"/><path fill-rule="evenodd" class="b" d="m623.5 940.3c0-4.1 3-7.4 7-7.4 4.3 0 6.8 3.4 6.8 7.6v0.6h-11.5c0.2 2.7 2.1 4.9 5.2 4.9 1.6 0 3.2-0.7 4.3-1.8l1.1 1.4c-1.4 1.5-3.3 2.2-5.6 2.2-4.2 0-7.3-3-7.3-7.5zm7-5.6c-3 0-4.5 2.6-4.7 4.8h9.4c-0.1-2.2-1.5-4.8-4.7-4.8z"/><path class="b" d="m638.9 945.6l1.2-1.6c0.9 1.1 2.7 2 4.7 2 2.1 0 3.3-1 3.3-2.4 0-3.5-8.8-1.3-8.8-6.6 0-2.2 1.9-4.1 5.3-4.1 2.4 0 4.1 0.9 5.3 2.1l-1 1.5c-0.9-1-2.5-1.8-4.3-1.8-1.9 0-3.1 1-3.1 2.2 0 3.2 8.8 1.1 8.8 6.6 0 2.4-1.9 4.3-5.6 4.3-2.3 0-4.3-0.7-5.8-2.2z"/><path class="b" d="m652.7 929.8c0-0.9 0.7-1.5 1.5-1.5 0.8 0 1.5 0.6 1.5 1.5 0 0.8-0.7 1.4-1.5 1.4-0.8 0-1.5-0.6-1.5-1.4zm0.4 17.7v-14.2h2.2v14.2z"/><path fill-rule="evenodd" class="b" d="m659 951.1l1.1-1.6c1.2 1.4 2.6 1.9 4.6 1.9 2.4 0 4.6-1.1 4.6-4.3v-2c-1.1 1.5-2.8 2.5-4.8 2.5-3.7 0-6.3-2.7-6.3-7.3 0-4.6 2.6-7.4 6.3-7.4 1.9 0 3.6 0.9 4.8 2.5v-2.1h2.2v13.8c0 4.7-3.3 6.1-6.8 6.1-2.4 0-4.1-0.4-5.7-2.1zm10.3-7.7v-6.2c-0.8-1.3-2.5-2.3-4.3-2.3-2.8 0-4.5 2.2-4.5 5.4 0 3.1 1.7 5.4 4.5 5.4 1.8 0 3.5-1.1 4.3-2.3z"/><path class="b" d="m684.7 947.5v-9.3c0-2.5-1.2-3.3-3.1-3.3-1.8 0-3.4 1-4.2 2.2v10.4h-2.2v-14.2h2.2v2c1-1.2 2.9-2.4 5-2.4 3 0 4.6 1.5 4.6 4.6v10z"/><path fill-rule="evenodd" class="b" d="m689.8 940.3c0-4.1 2.9-7.4 7-7.4 4.3 0 6.8 3.4 6.8 7.6v0.6h-11.5c0.2 2.7 2.1 4.9 5.1 4.9 1.7 0 3.3-0.7 4.4-1.8l1.1 1.4c-1.4 1.5-3.3 2.2-5.7 2.2-4.2 0-7.2-3-7.2-7.5zm7-5.6c-3.1 0-4.6 2.6-4.7 4.8h9.4c-0.1-2.2-1.5-4.8-4.7-4.8z"/><path fill-rule="evenodd" class="b" d="m716.8 947.5v-2.2c-1.1 1.5-2.8 2.5-4.8 2.5-3.7 0-6.4-2.8-6.4-7.4 0-4.6 2.6-7.5 6.4-7.5 1.9 0 3.6 0.9 4.8 2.5v-7.6h2.2v19.7zm0-3.9v-6.4c-0.8-1.3-2.5-2.3-4.3-2.3-2.9 0-4.6 2.3-4.6 5.5 0 3.1 1.7 5.4 4.6 5.4 1.8 0 3.5-1 4.3-2.2z"/><path fill-rule="evenodd" class="b" d="m729.5 947.5v-19.7h2.2v7.6c1.1-1.6 2.9-2.5 4.8-2.5 3.7 0 6.3 2.9 6.3 7.5 0 4.6-2.6 7.4-6.3 7.4-2 0-3.7-1-4.8-2.5v2.2zm6.4-1.7c2.9 0 4.6-2.3 4.6-5.4 0-3.2-1.7-5.5-4.6-5.5-1.7 0-3.4 1-4.2 2.3v6.4c0.8 1.2 2.5 2.2 4.2 2.2z"/><path class="b" d="m745.2 951c0.4 0.2 0.9 0.3 1.2 0.3 1 0 1.7-0.4 2.2-1.5l0.9-2.2-5.9-14.3h2.3l4.8 11.6 4.7-11.6h2.4l-7.1 17.1c-0.9 2-2.3 2.8-4.2 2.8-0.5 0-1.2-0.1-1.6-0.2z"/></svg>